<?xml version="1.0" encoding="utf-8"?>
<!-- Generator: Adobe Illustrator 26.0.1, SVG Export Plug-In . SVG Version: 6.00 Build 0)  -->
<svg version="1.1" id="Layer_1" xmlns="http://www.w3.org/2000/svg" xmlns:xlink="http://www.w3.org/1999/xlink" x="0px" y="0px"
	 viewBox="0 0 58 97.7" style="enable-background:new 0 0 58 97.7;" xml:space="preserve">
<style type="text/css">
	.st0{fill:#70C9C1;}
	.st1{fill:#3A3B3B;}
</style>
<g id="Layer_2_00000057859355136525080960000005730102262595858576_">
	<g id="Layer_2-2">
		<path class="st0" d="M30.8,55c0.5,1.5,1.8,5.5,3.8,11.8c4.3,11.5,7.3,18.9,9,22.2c0.8,1.3,1.3,2.8,1.4,4.4c-0.1,1.2-0.6,2.3-1.5,3
			c-1,1-2.3,1.4-3.7,1.3c-1.2-0.1-2.4-0.7-3.2-1.6c-3-3.2-7.5-13.9-13.5-31.9c-5.7,6.7-9.6,12.4-11.8,17.3c-0.5,1.3-1.3,2.4-2.2,3.4
			c-1.7,1.6-3.9,1.1-6.5-1.7c-1.6-1.8-2.5-4.1-2.5-6.5C-0.1,71.6,0,63.5,0.4,52.3c0.4-11.8,1.5-23.6,3.4-35.2
			C5.2,8.7,7.1,3.4,9.3,1.3c1.1-1,2.5-1.4,3.9-1.3c1.2,0,2.3,0.5,3.1,1.4c1,1,1.8,3.3,2.6,6.6c0.1,0.6,0.9,4.3,2.2,11
			c1.7,8.6,3.9,17.2,6.6,25.9c2.9-3,4.8-5,5.8-5.9c2.6-2.4,4.7-2.6,6.5-0.7c1.5,1.4,2.1,3.6,1.3,5.6c-0.3,0.9-2,2.8-5.1,5.6
			C35.4,50.3,33.5,52.2,30.8,55 M20.1,53.7C16.7,41.9,14,30,12,17.9c-2.2,6.8-3.5,16.4-4,28.7c-0.4,9-0.4,16.5,0,22.6
			C11.7,63.8,15.7,58.6,20.1,53.7"/>
	</g>
</g>
<g>
	<path class="st1" d="M46.1,97.7v-1.2c3.5-0.3,3.9-0.5,3.9-4.2V75.5c0-3.7-0.4-4-3.9-4.2V70H58v1.3c-3.5,0.2-3.9,0.5-3.9,4.2v16.8
		c0,3.7,0.4,3.9,3.9,4.2v1.2H46.1z"/>
</g>
</svg>
