<svg xmlns="http://www.w3.org/2000/svg" viewBox="0 0 45 97.66"><defs><style>.cls-1{fill:#70c9c1;}</style></defs><g id="Layer_2" data-name="Layer 2"><g id="Layer_2-2" data-name="Layer 2"><path class="cls-1" d="M30.77,55q.81,2.3,3.79,11.75,6.51,17.28,9,22.16A10.32,10.32,0,0,1,45,93.31a4.16,4.16,0,0,1-1.55,3,4.42,4.42,0,0,1-3.71,1.27,4.8,4.8,0,0,1-3.17-1.56Q32,91.17,23.08,64.15q-8.55,10-11.81,17.31a11,11,0,0,1-2.2,3.4Q6.46,87.31,2.61,83.2a10,10,0,0,1-2.5-6.47Q-.21,69.08.4,52.35A285.33,285.33,0,0,1,3.77,17.14Q5.95,4.43,9.28,1.33A5.21,5.21,0,0,1,13.18,0a4.52,4.52,0,0,1,3.11,1.37Q17.76,2.93,18.85,8q.22.88,2.23,11,2.61,12.86,6.61,25.87Q32,40.37,33.51,39q3.84-3.6,6.53-.73a5.23,5.23,0,0,1,1.34,5.61c-.33.87-2,2.75-5.12,5.64Q34.9,50.76,30.77,55m-10.63-1.3A296.84,296.84,0,0,1,12,17.91q-3.26,10.26-4,28.74Q7.41,60.11,8,69.22A144.8,144.8,0,0,1,20.14,53.69"/></g></g></svg>